:version 1.10
:name ASF
:units
  mass 1
  length 1
  angle deg
:documentation
  ASF file generated by Kaydara
:root
  axis xyz
  order  tx ty tz rx ry rz
  position 0 0 0
  orientation 0 0 0
:bonedata
  begin
    id 1
    name RightUpLegDummy
    direction -0.718183 -0.695806 0.00816078
    length 4.904
    axis 0 0 0 xyz
  end
  begin
    id 2
    name RightUpLeg
    direction -0.0736652 -0.994202 0.0783343
    length 17.4976
    axis -2.72909 -3.00389 -4.00133 xyz
    dof rx ry rz
  end
  begin
    id 3
    name RightLeg
    direction -0.0389037 -0.994596 -0.0962598
    length 16.5821
    axis 3.95836 -18.5909 -4.46993 xyz
    dof rx ry rz
  end
  begin
    id 4
    name RightFoot
    direction -0.311643 -0.412678 0.855906
    length 3.77069
    axis -1.99483 -18.8351 -3.27644 xyz
    dof rx ry rz
  end
  begin
    id 5
    name RightToes
    direction -0.317852 0.0389852 0.947339
    length 3.85082
    axis -2.00228 -18.1713 -3.25211 xyz
    dof rx ry rz
  end
  begin
    id 6
    name SpineDummy
    direction 8.3039e-015 1 4.44677e-016
    length 4.6813
    axis 0 0 0 xyz
  end
  begin
    id 7
    name Spine
    direction -0.000262373 0.999988 0.00493267
    length 10.1015
    axis -0.00246081 0.00062579 0.0150362 xyz
    dof rx ry rz
  end
  begin
    id 8
    name Spine1
    direction 0 0 0
    length 0
    axis -0.00349562 0.000650293 0.0196666 xyz
    dof rx ry rz
  end
  begin
    id 9
    name HEadDummy
    direction -0.000343232 0.999999 0.00123745
    length 3.43865
    axis -0.00349562 0.000650293 0.0196666 xyz
  end
  begin
    id 10
    name HEad
    direction -0.0461221 0.980933 0.188796
    length 5.12695
    axis -0.00351404 -7.04812 0.0199272 xyz
    dof rx ry rz
  end
  begin
    id 11
    name LeftShoulder1Dummy
    direction 0.998904 -0.0399089 -0.0244534
    length 3.5433
    axis -0.00349562 0.000650293 0.0196666 xyz
  end
  begin
    id 12
    name LeftShoulder1
    direction 0.99951 1.64443e-005 0.0312999
    length 4.05031
    axis -0.00349562 0.000650293 0.0196666 xyz
    dof rx ry rz
  end
  begin
    id 13
    name LeftArm
    direction 0.984791 0.0515299 0.165927
    length 12.9126
    axis -64.823 -10.7743 5.20463 xyz
    dof rx ry rz
  end
  begin
    id 14
    name LeftForeArm
    direction 0.984968 0.0534808 0.16425
    length 10.8596
    axis -30.0462 -7.70601 1.87451 xyz
    dof rx ry rz
  end
  begin
    id 15
    name LeftHand
    direction 0.975871 0.0289682 0.216418
    length 6.62295
    axis -20.1348 -6.98077 1.86072 xyz
    dof rx ry rz
  end
  begin
    id 16
    name RightShoulderDummy
    direction -0.998877 -0.0405946 -0.0244307
    length 3.5433
    axis -0.00349562 0.000650293 0.0196666 xyz
  end
  begin
    id 17
    name RightShoulder
    direction -0.998933 -0.0249743 -0.0388558
    length 4.05031
    axis -0.0205316 -4.02113 1.41395 xyz
    dof rx ry rz
  end
  begin
    id 18
    name RightArm
    direction -0.997559 0.068664 0.0127103
    length 12.9638
    axis -67.3882 1.84188 -6.15987 xyz
    dof rx ry rz
  end
  begin
    id 19
    name RightForeArm
    direction -0.991508 0.0912848 0.0926241
    length 10.8312
    axis -22.1975 3.41087 -4.28711 xyz
    dof rx ry rz
  end
  begin
    id 20
    name RightHand
    direction -0.989262 0.0600788 0.133232
    length 6.57864
    axis -12.2911 2.17515 -4.39675 xyz
    dof rx ry rz
  end
  begin
    id 21
    name LeftUpLegDummy
    direction 0.718183 -0.695806 0.00816078
    length 4.904
    axis 0 0 0 xyz
  end
  begin
    id 22
    name LeftUpLeg
    direction 0.0831398 -0.99469 0.0606531
    length 17.4976
    axis -1.71016 2.29552 4.63832 xyz
    dof rx ry rz
  end
  begin
    id 23
    name LeftLeg
    direction 0.0498442 -0.991778 -0.117862
    length 16.5821
    axis 5.13757 15.5727 5.13348 xyz
    dof rx ry rz
  end
  begin
    id 24
    name LeftFoot
    direction 0.269026 -0.433896 0.85986
    length 3.77069
    axis -0.576502 15.6961 4.10267 xyz
    dof rx ry rz
  end
  begin
    id 25
    name LeftToes
    direction 0.277311 0.0251143 0.960452
    length 3.85048
    axis -0.576502 15.6961 4.10267 xyz
    dof rx ry rz
  end
:hierarchy
  begin
    root RightUpLegDummy SpineDummy LeftUpLegDummy
    RightUpLegDummy RightUpLeg
    RightUpLeg RightLeg
    RightLeg RightFoot
    RightFoot RightToes
    SpineDummy Spine
    Spine Spine1
    Spine1 HEadDummy LeftShoulder1Dummy RightShoulderDummy
    HEadDummy HEad
    LeftShoulder1Dummy LeftShoulder1
    LeftShoulder1 LeftArm
    LeftArm LeftForeArm
    LeftForeArm LeftHand
    RightShoulderDummy RightShoulder
    RightShoulder RightArm
    RightArm RightForeArm
    RightForeArm RightHand
    LeftUpLegDummy LeftUpLeg
    LeftUpLeg LeftLeg
    LeftLeg LeftFoot
    LeftFoot LeftToes
  end

:SAMPLES-PER-SECOND 30
:FULLY-SPECIFIED
:DEGREES
187
root  -5.58378 38.3997 -4.16748 -3.75763 -15.945 -3.06258
RightUpLeg  -8.96397 1.30866 10.7885
RightLeg  22.9212 0.0995977 -4.59909
RightFoot  -12.6088 0.0586052 -3.79985
RightToes  1.74624e-010 -3.18055e-015 -2.98177e-016
Spine  4.99928 -1.49713 11.7624
Spine1  11.0329 -1.35671 6.8716
HEad  -11.7045 11.3663 0.135228
LeftShoulder1  -3.88251e-019 9.70628e-020 -3.87848e-018
LeftArm  -32.5073 55.5055 -74.8403
LeftForeArm  -8.56313 -15.8121 -0.814001
LeftHand  -1.20986 -4.3227 15.2414
RightShoulder  7.1724 10.2837 34.2619
RightArm  6.1078 -39.783 24.5306
RightForeArm  16.9705 15.3459 -5.8373
RightHand  -1.14522 4.77576 -13.0033
LeftUpLeg  -16.9585 2.0403 11.6035
LeftLeg  48.0136 -3.86332 12.7832
LeftFoot  -7.55602 0.533068 -11.338
LeftToes  7.37594e-011 2.64622e-011 -6.25182e-011
188
root  -5.54975 38.357 -4.13812 -3.34741 -16.5547 -3.34721
RightUpLeg  -9.45978 1.66278 11.1547
RightLeg  23.2458 0.381185 -4.73044
RightFoot  -12.674 0.0592534 -3.78146
RightToes  1.74624e-010 -3.18055e-015 -2.98177e-016
Spine  4.40053 -1.26617 12.8541
Spine1  11.6168 -0.98908 6.34599
HEad  -11.7953 10.8252 -0.36445
LeftShoulder1  -3.88251e-019 9.70628e-020 -3.87848e-018
LeftArm  -31.3434 55.4315 -75.0213
LeftForeArm  -9.95943 -18.8837 -0.292345
LeftHand  -1.26108 -4.2499 15.9888
RightShoulder  7.14644 10.2716 34.1545
RightArm  3.8536 -39.1247 23.7505
RightForeArm  26.0983 12.3857 -4.65825
RightHand  -1.27118 6.21698 -12.6577
LeftUpLeg  -18.404 2.43217 11.8536
LeftLeg  51.4486 -1.69649 17.3211
LeftFoot  -9.0668 0.283231 -8.88211
LeftToes  7.37594e-011 2.64622e-011 -6.25182e-011
189
root  -5.53401 38.322 -4.09825 -2.69218 -16.8058 -3.58819
RightUpLeg  -10.2029 1.96462 11.4298
RightLeg  23.5711 0.41813 -4.87351
RightFoot  -12.7576 0.0558117 -3.69989
RightToes  1.74624e-010 -3.18055e-015 -2.98177e-016
Spine  3.7137 -1.04633 13.0374
Spine1  11.5059 -1.01181 6.93192
HEad  -11.1721 10.3519 -1.22793
LeftShoulder1  -3.88251e-019 9.70628e-020 -3.87848e-018
LeftArm  -30.2562 56.1486 -76.3995
LeftForeArm  -12.7002 -21.9987 1.0884
LeftHand  -1.31569 -4.4704 16.2888
RightShoulder  7.16957 10.2767 34.2627
RightArm  3.82273 -38.9018 22.041
RightForeArm  31.986 10.4661 -4.43686
RightHand  -1.424 7.1916 -13.1079
LeftUpLeg  -19.49 1.82753 11.7448
LeftLeg  53.1287 -2.22038 17.6815
LeftFoot  -7.53722 0.385678 -8.31496
LeftToes  7.37594e-011 2.64622e-011 -6.25182e-011
190
root  -5.55319 38.3281 -4.02978 -2.27869 -16.8501 -3.76663
RightUpLeg  -10.3831 2.18119 11.6418
RightLeg  23.3996 0.278777 -4.90866
RightFoot  -12.7481 0.0522251 -3.63749
RightToes  1.74624e-010 -3.18055e-015 -2.98177e-016
Spine  2.88755 -0.864321 12.559
Spine1  11.6402 -1.28164 8.04478
HEad  -10.245 10.0636 -2.33783
LeftShoulder1  -3.88251e-019 9.70628e-020 -3.87848e-018
LeftArm  -29.6496 56.9516 -78.2779
LeftForeArm  -15.2809 -24.4326 2.60854
LeftHand  -1.35688 -5.04573 15.8554
RightShoulder  7.22007 10.2891 34.496
RightArm  4.49524 -39.1258 19.7149
RightForeArm  33.4605 10.0961 -4.63228
RightHand  -1.40209 7.23283 -12.8602
LeftUpLeg  -19.5137 0.0697112 11.3379
LeftLeg  52.5068 -4.43469 14.1471
LeftFoot  -3.6452 0.799378 -9.67893
LeftToes  7.37594e-011 2.64622e-011 -6.25182e-011
191
root  -5.61162 38.3931 -3.92872 -2.1152 -16.7127 -3.80512
RightUpLeg  -9.9289 2.29239 11.7241
RightLeg  22.5636 -0.00819687 -4.76998
RightFoot  -12.5518 0.0559693 -3.68149
RightToes  1.74624e-010 -3.18055e-015 -2.98177e-016
Spine  2.12793 -0.839795 11.2842
Spine1  11.8108 -1.87666 9.5944
HEad  -9.11136 10.1514 -3.61139
LeftShoulder1  -3.88251e-019 9.70628e-020 -3.87848e-018
LeftArm  -29.4714 57.7215 -80.0291
LeftForeArm  -16.5343 -25.9086 3.58713
LeftHand  -1.36581 -5.77847 14.904
RightShoulder  7.2217 10.267 34.5532
RightArm  5.56496 -39.7672 17.1428
RightForeArm  30.5623 11.0764 -4.82673
RightHand  -1.22212 6.19206 -12.2201
LeftUpLeg  -18.241 -1.96546 10.4173
LeftLeg  49.2543 -5.20579 11.562
LeftFoot  -0.888232 1.3204 -12.367
LeftToes  7.37594e-011 2.64622e-011 -6.25182e-011
192
root  -5.68611 38.5193 -3.82406 -1.93998 -16.5127 -3.78686
RightUpLeg  -9.15094 2.38733 11.7174
RightLeg  21.0724 -0.394782 -4.35801
RightFoot  -12.0245 0.0751249 -3.8877
RightToes  1.74624e-010 -3.18055e-015 -2.98177e-016
Spine  1.5786 -1.04928 9.69002
Spine1  11.5569 -2.64867 10.8584
HEad  -7.82483 10.5546 -4.62343
LeftShoulder1  -3.88251e-019 9.70628e-020 -3.87848e-018
LeftArm  -29.6288 58.4846 -81.2403
LeftForeArm  -15.9562 -26.2594 3.82857
LeftHand  -1.34787 -6.41699 13.9155
RightShoulder  7.1751 10.217 34.4236
RightArm  7.21967 -40.6755 14.6903
RightForeArm  25.1567 12.6057 -4.95084
RightHand  -1.06338 4.58893 -12.3044
LeftUpLeg  -15.5543 -2.90857 8.94373
LeftLeg  43.6444 -1.95964 12.9292
LeftFoot  -1.90611 1.4444 -14.7598
LeftToes  7.37594e-011 2.64622e-011 -6.25182e-011
